<svg width="805" height="805" viewBox="0 0 805 805" fill="none" xmlns="http://www.w3.org/2000/svg">
<path d="M111.799 749.987C111.799 760.791 172.765 769.549 247.971 769.549C323.178 769.549 384.144 760.791 384.144 749.987C384.144 739.182 323.178 730.424 247.971 730.424C172.765 730.422 111.799 739.182 111.799 749.987Z" fill="#D2D2D2"/>
<path d="M525.302 462.713C525.302 606.505 408.735 723.07 264.941 723.07C121.152 723.07 4.58691 606.505 4.58691 462.713C4.58691 318.922 121.15 202.355 264.941 202.355C408.735 202.357 525.302 318.922 525.302 462.713Z" fill="#B9E1F8"/>
<path d="M354.45 343.179H353.562V390.709H354.45C359.865 390.709 364.254 387.854 364.254 384.333V349.556C364.252 346.034 359.865 343.179 354.45 343.179Z" fill="#231D22"/>
<path d="M354.45 397.841H353.562V445.367H354.45C359.865 445.367 364.254 442.514 364.254 438.992V404.21C364.252 400.692 359.865 397.841 354.45 397.841Z" fill="#231D22"/>
<path d="M356.706 728.851C356.706 737.573 349.64 744.633 340.92 744.633H166.831C158.114 744.633 151.047 737.573 151.047 728.851V314.184C151.047 305.468 158.114 298.4 166.831 298.4H340.92C349.638 298.4 356.706 305.47 356.706 314.184V728.851Z" fill="#352E35"/>
<path d="M347.864 729.123C347.864 737.689 341.401 744.636 333.434 744.636H174.322C166.355 744.636 159.901 737.689 159.901 729.123V320.522C159.901 311.955 166.355 305.01 174.322 305.01H333.434C341.401 305.01 347.864 311.955 347.864 320.522V729.123Z" fill="#423A43"/>
<path d="M347.864 329.548H159.901V702.009H347.864V329.548Z" fill="white"/>
<path d="M347.864 329.548H159.901V360.078H347.864V329.548Z" fill="#0472A4"/>
<path d="M168.747 694.116V329.548H159.901V702.009H347.864V694.116H168.747Z" fill="#C6C6C6"/>
<path d="M324.468 316.637C324.468 319.414 322.218 321.656 319.449 321.656C316.671 321.656 314.428 319.414 314.428 316.637C314.428 313.861 316.673 311.616 319.449 311.616C322.217 311.616 324.468 313.859 324.468 316.637Z" fill="#A1DAF8"/>
<path d="M320.886 314.483C320.886 315.668 319.919 316.634 318.73 316.634C317.537 316.634 316.573 315.668 316.573 314.483C316.573 313.292 317.537 312.331 318.73 312.331C319.92 312.332 320.886 313.292 320.886 314.483Z" fill="white"/>
<path d="M278.986 298.402H228.768V311.613H278.986V298.402Z" fill="#231D22"/>
<path d="M273.914 732.882C273.914 735.328 271.932 737.314 269.472 737.314H238.272C235.829 737.314 233.849 735.328 233.849 732.882V713.251C233.849 710.811 235.829 708.827 238.272 708.827H269.472C271.932 708.827 273.914 710.813 273.914 713.251V732.882Z" fill="#231D22"/>
<path d="M257.652 420.616V539.188C257.652 539.188 206.686 512.986 190.934 479.034C174.781 444.212 183.217 416.01 213.072 407.305C238.956 399.756 257.652 420.616 257.652 420.616Z" fill="#AF1F17"/>
<path d="M257.651 420.616V539.188C257.651 539.188 308.619 512.986 324.367 479.034C340.524 444.212 332.09 416.01 302.228 407.305C276.351 399.756 257.651 420.616 257.651 420.616Z" fill="#8D1B0E"/>
<path d="M329.674 588.755C329.674 593.784 325.596 597.862 320.564 597.862H194.734C189.701 597.862 185.629 593.784 185.629 588.755V566.127C185.629 561.099 189.699 557.021 194.734 557.021H320.564C325.594 557.021 329.674 561.099 329.674 566.127V588.755Z" fill="#E5251D"/>
<path d="M322.189 557.172C322.386 557.916 322.501 558.696 322.501 559.501V582.131C322.501 587.159 318.418 591.236 313.395 591.236H187.561C187.006 591.236 186.466 591.179 185.942 591.086C186.974 594.982 190.512 597.86 194.736 597.86H320.566C325.597 597.86 329.677 593.782 329.677 588.753V566.126C329.675 561.652 326.445 557.937 322.189 557.172Z" fill="#C02215"/>
<path d="M204.496 566.162H209.531C212.844 566.162 215.193 566.875 216.581 568.305C218.183 569.929 218.985 572.884 218.985 577.173C218.985 581.525 218.118 584.568 216.386 586.3C214.957 587.709 212.639 588.411 209.434 588.411H204.464C204.184 588.411 203.999 588.367 203.913 588.28C203.826 588.195 203.783 588.011 203.783 587.728V566.841C203.781 566.391 204.019 566.162 204.496 566.162ZM208.166 584.905H209.336C211.219 584.905 212.518 584.386 213.234 583.345C213.991 582.22 214.372 580.141 214.372 577.108C214.372 574.25 213.993 572.281 213.234 571.196C212.497 570.177 211.199 569.668 209.336 569.668H208.166V584.905Z" fill="white"/>
<path d="M237.984 577.303C237.984 581.158 237.28 584.066 235.873 586.026C234.466 587.987 232.473 588.966 229.896 588.966C227.319 588.966 225.328 587.987 223.921 586.026C222.512 584.066 221.81 581.16 221.81 577.303C221.81 573.428 222.535 570.494 223.985 568.502C225.369 566.575 227.34 565.611 229.896 565.611C232.452 565.611 234.423 566.575 235.809 568.502C237.259 570.514 237.984 573.451 237.984 577.303ZM229.896 585.554C232.215 585.554 233.372 582.803 233.372 577.303C233.372 571.781 232.215 569.021 229.896 569.021C227.579 569.021 226.422 571.781 226.422 577.303C226.422 582.805 227.579 585.554 229.896 585.554Z" fill="white"/>
<path d="M257.31 566.843V587.73C257.31 588.012 257.272 588.195 257.197 588.282C257.121 588.37 256.93 588.413 256.627 588.413H254.484C254.158 588.413 253.908 588.262 253.736 587.959L247.791 576.881C246.795 575.041 246.176 573.568 245.938 572.464H245.873C245.873 572.508 245.89 572.968 245.921 573.846C245.955 574.723 245.97 575.454 245.97 576.039V587.733C245.97 588.188 245.743 588.415 245.288 588.415H242.916C242.462 588.415 242.234 588.188 242.234 587.733V566.847C242.234 566.393 242.462 566.166 242.916 566.166H245.58C245.926 566.166 246.174 566.306 246.328 566.588L251.687 576.658C252.488 578.152 253.128 579.723 253.603 581.368H253.668C253.668 581.001 253.653 580.274 253.62 579.191C253.588 578.108 253.573 577.427 253.573 577.144V566.847C253.573 566.393 253.8 566.166 254.255 566.166H256.625C257.083 566.162 257.31 566.391 257.31 566.843Z" fill="white"/>
<path d="M266.667 582.468L265.334 587.729C265.226 588.184 264.999 588.411 264.653 588.411H261.374C260.961 588.411 260.745 588.314 260.724 588.119C260.724 588.032 260.766 587.849 260.853 587.567L267.252 566.648C267.36 566.323 267.598 566.162 267.966 566.162H271.345C271.692 566.162 271.919 566.334 272.027 566.68L278.392 587.631C278.479 587.911 278.521 588.085 278.521 588.15C278.521 588.324 278.305 588.409 277.871 588.409H274.232C273.994 588.409 273.81 588.182 273.681 587.728L272.25 582.466H266.667V582.468ZM271.442 579.545L270.111 573.958C269.872 572.983 269.634 571.468 269.395 569.41H269.331C269.157 571.143 268.909 572.659 268.583 573.958L267.154 579.545H271.442Z" fill="white"/>
<path d="M288.526 570.06V587.73C288.526 588.184 288.298 588.411 287.844 588.411H284.822C284.368 588.411 284.141 588.184 284.141 587.73V570.06H279.887C279.626 570.06 279.468 570.016 279.415 569.931C279.362 569.844 279.334 569.704 279.334 569.509V566.716C279.334 566.457 279.376 566.3 279.463 566.245C279.55 566.192 279.69 566.166 279.887 566.166H293.268C293.571 566.166 293.781 566.186 293.902 566.23C294.022 566.273 294.08 566.37 294.08 566.521C294.08 566.586 294.048 566.739 293.984 566.976L293.302 569.541C293.215 569.888 292.965 570.06 292.554 570.06H288.526Z" fill="white"/>
<path d="M308.178 585.586V587.729C308.178 588.184 307.962 588.411 307.527 588.411H296.839C296.385 588.411 296.158 588.184 296.158 587.729V566.843C296.158 566.389 296.385 566.162 296.839 566.162H307.494C307.797 566.162 308.008 566.182 308.127 566.226C308.246 566.27 308.307 566.366 308.307 566.518C308.307 566.582 308.273 566.735 308.208 566.972L307.591 569.147C307.483 569.494 307.235 569.666 306.843 569.666H300.542V575.026H306.065C306.368 575.026 306.557 575.064 306.633 575.139C306.709 575.217 306.748 575.404 306.748 575.707V577.85C306.748 578.305 306.521 578.532 306.067 578.532H300.544V584.899H307.496C307.799 584.899 307.989 584.937 308.064 585.013C308.14 585.094 308.178 585.283 308.178 585.586Z" fill="white"/>
<path opacity="0.1" d="M313.533 566.748C313.533 569.147 311.583 571.093 309.184 571.093H197.426C195.023 571.093 193.077 569.147 193.077 566.748C193.077 564.348 195.023 562.401 197.426 562.401H309.184C311.583 562.401 313.533 564.348 313.533 566.748Z" fill="white"/>
<path d="M286.316 343.738C286.316 348.319 282.603 352.034 278.021 352.034H181.377C176.794 352.034 173.081 348.319 173.081 343.738C173.081 339.156 176.794 335.441 181.377 335.441H278.021C282.603 335.441 286.316 339.156 286.316 343.738Z" fill="white"/>
<path d="M311.283 343.737C311.283 349.47 306.635 354.118 300.901 354.118C295.166 354.118 290.522 349.47 290.522 343.737C290.522 338.004 295.166 333.356 300.901 333.356C306.635 333.356 311.283 338.004 311.283 343.737Z" fill="white"/>
<path d="M336.695 343.737C336.695 349.47 332.051 354.118 326.316 354.118C320.582 354.118 315.938 349.47 315.938 343.737C315.938 338.004 320.582 333.356 326.316 333.356C332.051 333.356 336.695 338.004 336.695 343.737Z" fill="white"/>
<path d="M332.705 615.963H180.545V637.427H332.705V615.963Z" fill="#C6C6C6"/>
<path d="M332.705 643.659H180.545V652.335H332.705V643.659Z" fill="#C6C6C6"/>
<path d="M332.705 657.654H180.545V666.332H332.705V657.654Z" fill="#C6C6C6"/>
<path d="M332.705 671.039H180.545V679.715H332.705V671.039Z" fill="#C6C6C6"/>
<path d="M297.343 457.169H218.898V475.75H297.343V457.169Z" fill="#765362"/>
<path d="M297.343 466.459H218.898V475.748H297.343V466.459Z" fill="#765362"/>
<path d="M403.703 310.262C386.962 309.745 366.094 290.169 366.094 290.169L379.231 270.168L421.419 284.61C421.419 284.61 420.44 310.782 403.703 310.262Z" fill="#C38769"/>
<path d="M433.333 301.206C417.975 303.614 393.531 290.744 393.531 290.744L403.774 269.12L443.653 275.744C443.653 275.744 448.691 298.796 433.333 301.206Z" fill="#C38769"/>
<path d="M452.695 290.978C437.335 293.388 412.894 280.514 412.894 280.514L423.138 258.891L463.021 265.516C463.021 265.516 468.053 288.568 452.695 290.978Z" fill="#C38769"/>
<path d="M516.733 217.872L526.271 262.615L445.118 261.479L400.265 262.743C400.265 262.743 387.747 279.684 392.111 289.042C399.326 304.506 375.2 316.625 363.386 301.038C351.574 285.451 338.814 250.416 350.062 238.953C361.304 227.489 409.508 206.31 420.184 204.36C439.654 200.797 516.733 217.872 516.733 217.872Z" fill="#F8B894"/>
<path d="M507.302 255.957C493.593 248.195 479.848 240.652 465.619 233.872C463.137 232.691 462.233 230.536 462.408 228.433C452.97 226.808 443.829 228.037 434.395 231.79C422.725 236.439 411.743 241.167 399.404 243.802C389.732 245.868 377.409 247.636 371.261 256.375C370.695 257.182 367.257 262.108 368.607 263.231C370.692 264.965 373.749 265.364 376.358 265.682C383.113 266.515 389.921 266.061 396.688 266.671C397.006 266.699 397.297 266.752 397.583 266.818C399.088 264.338 400.268 262.742 400.268 262.742L445.12 261.477L518.302 262.5C517.633 261.968 516.973 261.423 516.312 260.885C513.247 259.198 510.182 257.587 507.302 255.957Z" fill="#DCA585"/>
<path d="M418.229 227.562L419.624 261.678L425.798 262.02L418.229 227.562Z" fill="#C38769"/>
<path d="M354.688 247.673L382.428 267.59L386.502 262.939L354.688 247.673Z" fill="#C38769"/>
<path d="M338.39 221.565L250.283 358.747L324.092 406.151L412.199 268.969L338.39 221.565Z" fill="#EDE7CA"/>
<path d="M258.407 357.145L322.171 398.099L404.078 270.569L340.318 229.616L258.407 357.145ZM396.39 271.372L319.7 390.769L266.099 356.344L342.783 236.945L396.39 271.372Z" fill="#7C9050"/>
<path d="M267.653 344.984L260.118 356.717L272.462 364.646C274.041 363.836 275.433 362.622 276.462 361.024C279.571 356.183 278.166 349.74 273.327 346.628C271.565 345.503 269.596 344.975 267.653 344.984Z" fill="#7C9050"/>
<path d="M390.269 264.033L402.003 271.568L394.074 283.914C392.302 283.834 390.528 283.306 388.934 282.282C384.088 279.171 382.687 272.728 385.795 267.885C386.926 266.129 388.499 264.832 390.269 264.033Z" fill="#7C9050"/>
<path d="M329.386 384.633L321.847 396.367L309.501 388.438C309.584 386.668 310.109 384.894 311.133 383.298C314.245 378.457 320.688 377.054 325.529 380.161C327.288 381.289 328.585 382.862 329.386 384.633Z" fill="#7C9050"/>
<path d="M352.005 239.455L340.27 231.92L332.341 244.268C333.152 245.843 334.365 247.238 335.963 248.262C340.806 251.371 347.251 249.968 350.355 245.127C351.486 243.37 352.014 241.399 352.005 239.455Z" fill="#7C9050"/>
<path d="M348.086 287.356C364.362 297.807 369.961 318.112 360.585 332.703C351.212 347.294 330.422 350.649 314.148 340.197C297.874 329.744 292.277 309.441 301.651 294.848C311.02 280.259 331.812 276.902 348.086 287.356Z" fill="#7C9050"/>
<path d="M366.664 258.425C370.734 261.038 371.914 266.456 369.305 270.525C366.686 274.591 361.274 275.775 357.201 273.158C353.133 270.548 351.955 265.131 354.568 261.06C357.179 256.994 362.595 255.812 366.664 258.425Z" fill="#7C9050"/>
<path d="M305.337 353.915C309.407 356.527 310.587 361.944 307.974 366.014C305.359 370.083 299.943 371.26 295.874 368.65C291.804 366.035 290.624 360.619 293.239 356.552C295.853 352.483 301.266 351.3 305.337 353.915Z" fill="#7C9050"/>
<path d="M355.629 332.852L349.276 328.771C346.869 332.379 343.316 335.427 340.326 336.618L337.081 332.402C340.046 331.105 343.342 328.602 345.605 325.081C348.475 320.614 347.835 315.938 344.249 313.636C340.788 311.413 337.072 312.493 332.197 315.936C325.557 320.736 320.118 322.839 314.646 319.325C309.427 315.972 307.848 309.715 310.621 303.324L304.268 299.242L306.772 295.34L312.874 299.259C315.426 295.567 318.088 293.632 320.33 292.496L323.473 296.735C321.869 297.57 318.828 299.261 316.242 303.288C313.132 308.13 314.855 311.815 317.371 313.43C320.644 315.529 323.772 314.253 329.552 310.234C336.354 305.452 341.727 304.28 347.326 307.877C352.295 311.069 354.728 317.519 351.635 324.685L358.178 328.888L355.629 332.852Z" fill="#EDE7CA"/>
<path d="M294.337 290.149L250.283 358.741L324.094 406.146L368.148 337.555L294.337 290.149Z" fill="#CED4CD"/>
<path d="M463.964 225.102L526.274 262.612C526.274 262.612 494.468 262.752 487.463 266.827C476.669 273.101 475.475 281.223 453.284 283.391C432.795 285.397 404.014 285.986 381.714 283.432C364.279 281.437 358.149 263.033 375.029 258.758C388.327 255.39 404.463 253.909 414.985 252.128C425.508 250.346 438.829 226.342 463.964 225.102Z" fill="#F8B894"/>
<path d="M615.531 209.323L583.211 277.525L507.889 270.05L503.491 208.255L615.531 209.323Z" fill="#EA5B0C"/>
<path d="M330.87 227.082C316.383 235.479 288.325 229.875 288.325 229.875L288.922 205.956L332.373 195.944C332.373 195.944 345.359 218.688 330.87 227.082Z" fill="#C38769"/>
<path d="M351.254 203.748C339.478 213.905 311.925 215.876 311.925 215.876L309.208 192.103L346.573 176.673C346.573 176.673 363.024 193.593 351.254 203.748Z" fill="#C38769"/>
<path d="M362.296 184.837C350.522 194.995 322.968 196.967 322.968 196.967L320.253 173.194L357.618 157.762C357.618 157.762 374.066 174.684 362.296 184.837Z" fill="#C38769"/>
<path d="M378.08 88.9409L409.805 121.902L340.284 163.788L302.862 188.54C302.862 188.54 301.173 209.54 309.823 215.18C324.119 224.503 310.026 247.534 291.764 240.535C273.502 233.535 244.168 210.517 247.668 194.845C251.163 179.171 280.915 135.732 288.95 128.441C303.608 115.136 378.08 88.9409 378.08 88.9409Z" fill="#F8B894"/>
<path d="M390.178 126.261C374.438 126.911 358.781 127.761 343.118 129.516C340.39 129.822 338.483 128.469 337.522 126.591C328.648 130.194 321.535 136.064 315.507 144.234C308.05 154.342 301.219 164.156 292.133 172.909C285.007 179.768 275.474 187.778 274.869 198.447C274.814 199.431 274.498 205.429 276.232 205.671C278.92 206.042 281.724 204.768 284.106 203.663C290.289 200.8 295.827 196.822 301.895 193.765C302.18 193.621 302.457 193.513 302.733 193.42C302.703 190.52 302.86 188.539 302.86 188.539L340.284 163.785L402.975 126.013C402.125 125.913 401.28 125.799 400.43 125.691C396.937 125.877 393.486 126.127 390.178 126.261Z" fill="#DCA585"/>
<path d="M299.541 149.18L318.737 177.417L324.166 174.449L299.541 149.18Z" fill="#C38769"/>
<path d="M256.202 199.81L290.272 202.076L291.276 195.974L256.202 199.81Z" fill="#C38769"/>
<path d="M304.734 198.647C315.776 209.226 316.149 226.76 305.565 237.803C294.984 248.846 277.451 249.219 266.41 238.636C255.368 228.054 254.995 210.521 265.578 199.48C276.162 188.438 293.689 188.064 304.734 198.647Z" fill="#F9B233"/>
<path d="M306.084 234.343C295.501 245.384 277.969 245.759 266.928 235.178C260.635 229.144 257.814 220.859 258.501 212.802C256.551 221.886 259.211 231.738 266.411 238.637C277.452 249.218 294.986 248.845 305.567 237.804C310.118 233.056 312.638 227.105 313.159 221.024C312.114 225.871 309.766 230.5 306.084 234.343Z" fill="#FFCE32"/>
<path d="M301.381 230.702C293.382 239.051 280.13 239.334 271.782 231.335C267.025 226.774 264.891 220.511 265.413 214.418C263.939 221.285 265.949 228.733 271.39 233.949C279.74 241.948 292.994 241.666 300.993 233.319C304.433 229.727 306.336 225.231 306.731 220.634C305.944 224.297 304.168 227.798 301.381 230.702Z" fill="#FFCE32"/>
<path d="M300.362 203.207C308.886 211.375 309.172 224.908 301.006 233.431C292.837 241.956 279.304 242.244 270.781 234.075C262.257 225.907 261.969 212.376 270.137 203.851C278.306 195.328 291.839 195.04 300.362 203.207Z" stroke="#F39433" stroke-width="1.64087" stroke-miterlimit="10"/>
<path d="M269.062 201.84C269.346 202.111 269.354 202.56 269.085 202.842C268.814 203.124 268.367 203.133 268.085 202.862L266.452 201.295C266.169 201.024 266.16 200.575 266.429 200.293C266.7 200.011 267.148 200.002 267.428 200.271L269.062 201.84Z" fill="#F39433"/>
<path d="M304.933 236.214C305.213 236.485 305.224 236.932 304.956 237.214C304.681 237.496 304.236 237.507 303.954 237.237L302.318 235.667C302.036 235.4 302.027 234.95 302.296 234.669C302.568 234.387 303.015 234.378 303.295 234.647L304.933 236.214Z" fill="#F39433"/>
<path d="M302.604 202.128C302.334 202.41 301.887 202.419 301.605 202.151C301.323 201.88 301.313 201.433 301.582 201.149L303.148 199.515C303.419 199.233 303.867 199.222 304.149 199.493C304.431 199.763 304.441 200.21 304.172 200.492L302.604 202.128Z" fill="#F39433"/>
<path d="M268.232 237.997C267.961 238.28 267.512 238.289 267.232 238.018C266.952 237.748 266.942 237.301 267.211 237.019L268.777 235.383C269.048 235.101 269.496 235.089 269.777 235.36C270.059 235.631 270.07 236.078 269.797 236.36L268.232 237.997Z" fill="#F39433"/>
<path d="M285.895 195.038C285.902 195.43 285.592 195.752 285.204 195.761C284.812 195.769 284.49 195.458 284.479 195.068L284.433 192.804C284.424 192.414 284.734 192.09 285.124 192.083C285.514 192.075 285.84 192.386 285.848 192.774L285.895 195.038Z" fill="#F39433"/>
<path d="M286.951 244.707C286.959 245.097 286.652 245.421 286.26 245.43C285.868 245.438 285.546 245.127 285.537 244.737L285.489 242.473C285.48 242.083 285.79 241.759 286.182 241.752C286.572 241.744 286.896 242.053 286.904 242.443L286.951 244.707Z" fill="#F39433"/>
<path d="M309.409 218.957C309.017 218.965 308.695 218.654 308.687 218.264C308.676 217.874 308.986 217.551 309.378 217.541L311.641 217.492C312.033 217.484 312.355 217.795 312.364 218.185C312.373 218.577 312.063 218.9 311.671 218.91L309.409 218.957Z" fill="#F39433"/>
<path d="M259.741 220.015C259.349 220.023 259.025 219.714 259.016 219.322C259.008 218.932 259.317 218.609 259.709 218.601L261.971 218.552C262.363 218.544 262.685 218.855 262.696 219.245C262.704 219.637 262.393 219.96 262.003 219.968L259.741 220.015Z" fill="#F39433"/>
<path d="M276.627 196.836C276.786 197.192 276.627 197.611 276.271 197.772C275.915 197.931 275.495 197.772 275.336 197.416L274.408 195.35C274.249 194.992 274.408 194.574 274.764 194.415C275.12 194.254 275.54 194.413 275.699 194.771L276.627 196.836Z" fill="#F39433"/>
<path d="M296.971 242.158C297.132 242.516 296.971 242.935 296.614 243.094C296.259 243.255 295.841 243.096 295.682 242.738L294.754 240.672C294.595 240.316 294.752 239.898 295.11 239.737C295.468 239.578 295.885 239.737 296.046 240.093L296.971 242.158Z" fill="#F39433"/>
<path d="M307.612 209.692C307.254 209.853 306.835 209.694 306.676 209.336C306.513 208.98 306.672 208.56 307.028 208.401L309.096 207.473C309.454 207.312 309.872 207.473 310.033 207.829C310.194 208.187 310.033 208.605 309.677 208.764L307.612 209.692Z" fill="#F39433"/>
<path d="M262.288 230.036C261.932 230.193 261.513 230.036 261.353 229.68C261.192 229.324 261.353 228.905 261.708 228.745L263.774 227.817C264.132 227.656 264.548 227.817 264.709 228.173C264.87 228.531 264.709 228.949 264.353 229.11L262.288 230.036Z" fill="#F39433"/>
<path d="M294.784 196.848C294.643 197.211 294.235 197.397 293.869 197.257C293.506 197.118 293.32 196.71 293.456 196.346L294.263 194.229C294.403 193.864 294.81 193.68 295.175 193.82C295.539 193.959 295.723 194.368 295.586 194.733L294.784 196.848Z" fill="#F39433"/>
<path d="M277.119 243.281C276.979 243.648 276.57 243.83 276.205 243.692C275.841 243.551 275.656 243.144 275.796 242.777L276.602 240.662C276.739 240.297 277.149 240.113 277.515 240.252C277.88 240.39 278.062 240.799 277.924 241.164L277.119 243.281Z" fill="#F39433"/>
<path d="M307.598 227.846C307.233 227.706 307.049 227.297 307.189 226.931C307.327 226.566 307.736 226.382 308.102 226.524L310.216 227.327C310.582 227.467 310.765 227.874 310.627 228.239C310.487 228.605 310.078 228.788 309.713 228.648L307.598 227.846Z" fill="#F39433"/>
<path d="M261.163 210.184C260.799 210.045 260.615 209.637 260.756 209.269C260.892 208.906 261.301 208.72 261.664 208.86L263.781 209.667C264.148 209.805 264.33 210.214 264.194 210.579C264.054 210.947 263.643 211.13 263.279 210.988L261.163 210.184Z" fill="#F39433"/>
<path d="M280.98 195.509C281.067 195.89 280.832 196.27 280.448 196.359C280.071 196.448 279.691 196.212 279.602 195.831L279.085 193.625C278.996 193.247 279.232 192.864 279.613 192.777C279.993 192.686 280.374 192.923 280.463 193.304L280.98 195.509Z" fill="#F39433"/>
<path d="M292.298 243.884C292.389 244.263 292.15 244.643 291.772 244.732C291.391 244.821 291.01 244.584 290.923 244.204L290.407 242C290.316 241.622 290.554 241.241 290.933 241.152C291.315 241.063 291.694 241.3 291.787 241.68L292.298 243.884Z" fill="#F39433"/>
<path d="M308.935 214.041C308.556 214.13 308.174 213.894 308.085 213.515C308 213.133 308.233 212.752 308.613 212.665L310.819 212.15C311.197 212.061 311.58 212.298 311.667 212.676C311.76 213.057 311.523 213.437 311.142 213.528L308.935 214.041Z" fill="#F39433"/>
<path d="M260.565 225.361C260.181 225.45 259.804 225.214 259.711 224.833C259.624 224.452 259.859 224.074 260.243 223.985L262.445 223.47C262.828 223.381 263.206 223.618 263.297 223.996C263.386 224.379 263.15 224.757 262.767 224.848L260.565 225.361Z" fill="#F39433"/>
<path d="M298.796 198.985C298.589 199.318 298.152 199.42 297.821 199.214C297.489 199.007 297.385 198.572 297.593 198.239L298.788 196.315C298.991 195.982 299.43 195.882 299.763 196.086C300.094 196.293 300.197 196.73 299.99 197.061L298.796 198.985Z" fill="#F39433"/>
<path d="M272.595 241.193C272.39 241.524 271.951 241.627 271.62 241.422C271.287 241.216 271.184 240.779 271.395 240.447L272.585 238.52C272.79 238.189 273.229 238.086 273.562 238.295C273.894 238.499 273.996 238.936 273.788 239.268L272.595 241.193Z" fill="#F39433"/>
<path d="M305.462 231.86C305.126 231.655 305.026 231.218 305.234 230.883C305.439 230.553 305.874 230.449 306.208 230.656L308.131 231.85C308.468 232.057 308.566 232.494 308.362 232.825C308.156 233.157 307.716 233.261 307.387 233.054L305.462 231.86Z" fill="#F39433"/>
<path d="M263.249 205.659C262.92 205.454 262.814 205.017 263.024 204.685C263.227 204.354 263.666 204.252 264.001 204.458L265.924 205.651C266.256 205.859 266.358 206.295 266.15 206.626C265.947 206.959 265.508 207.061 265.175 206.855L263.249 205.659Z" fill="#F39433"/>
<path d="M272.3 199.176C272.53 199.494 272.459 199.935 272.145 200.164C271.829 200.395 271.388 200.325 271.159 200.009L269.824 198.18C269.591 197.864 269.661 197.421 269.979 197.192C270.297 196.961 270.737 197.031 270.966 197.347L272.3 199.176Z" fill="#F39433"/>
<path d="M301.557 239.328C301.786 239.644 301.716 240.087 301.402 240.316C301.084 240.547 300.645 240.477 300.416 240.159L299.081 238.33C298.848 238.014 298.918 237.571 299.236 237.34C299.55 237.111 299.993 237.179 300.223 237.497L301.557 239.328Z" fill="#F39433"/>
<path d="M305.268 205.365C304.952 205.594 304.512 205.526 304.281 205.208C304.05 204.891 304.121 204.45 304.433 204.219L306.266 202.885C306.582 202.655 307.023 202.724 307.254 203.038C307.485 203.356 307.415 203.797 307.097 204.028L305.268 205.365Z" fill="#F39433"/>
<path d="M265.116 234.621C264.798 234.85 264.361 234.782 264.13 234.466C263.899 234.15 263.969 233.707 264.282 233.478L266.116 232.145C266.43 231.914 266.872 231.984 267.102 232.3C267.333 232.616 267.263 233.058 266.947 233.289L265.116 234.621Z" fill="#F39433"/>
<path d="M290.065 195.443C290.009 195.829 289.643 196.092 289.259 196.034C288.871 195.973 288.604 195.61 288.666 195.223L289.018 192.986C289.081 192.599 289.441 192.336 289.829 192.395C290.213 192.457 290.478 192.819 290.418 193.205L290.065 195.443Z" fill="#F39433"/>
<path d="M282.364 244.522C282.306 244.91 281.94 245.171 281.554 245.11C281.168 245.05 280.903 244.686 280.965 244.3L281.315 242.064C281.376 241.676 281.739 241.413 282.126 241.474C282.512 241.534 282.775 241.898 282.715 242.284L282.364 244.522Z" fill="#F39433"/>
<path d="M309.002 223.129C308.617 223.069 308.35 222.705 308.411 222.319C308.472 221.935 308.835 221.67 309.221 221.73L311.459 222.082C311.845 222.141 312.108 222.505 312.048 222.889C311.987 223.277 311.624 223.54 311.239 223.478L309.002 223.129Z" fill="#F39433"/>
<path d="M259.925 215.426C259.537 215.365 259.27 215.002 259.332 214.617C259.391 214.231 259.756 213.966 260.143 214.027L262.38 214.379C262.767 214.439 263.032 214.803 262.969 215.189C262.912 215.575 262.545 215.839 262.163 215.778L259.925 215.426Z" fill="#F39433"/>
<path d="M297.201 227.019L298.534 228.295C298.926 228.672 298.926 229.069 298.528 229.482L297.962 230.075C297.564 230.489 297.171 230.506 296.775 230.13L295.444 228.854C294.738 229.592 293.632 230.446 292.135 231.419C290.363 232.555 289.283 232.934 288.888 232.555C288.831 232.498 288.759 232.392 288.678 232.241L287.025 228.99C286.947 228.761 286.951 228.594 287.048 228.496C287.01 228.536 287.672 228.259 289.034 227.668C290.391 227.078 291.466 226.451 292.25 225.789L286.455 220.234C284.077 221.213 282.458 221.76 281.593 221.875C279.359 222.191 277.405 221.548 275.728 219.942C273.835 218.128 273.024 216.012 273.305 213.59C273.5 211.85 274.088 210.427 275.067 209.325L273.617 207.935C273.225 207.559 273.225 207.161 273.623 206.748L274.189 206.156C274.584 205.743 274.982 205.724 275.378 206.103L276.828 207.49C277.602 206.797 278.611 206.082 279.851 205.342C281.512 204.359 282.557 204.075 282.992 204.491C283.07 204.569 283.151 204.702 283.231 204.891L284.363 207.736C284.446 207.967 284.442 208.13 284.346 208.229C284.386 208.189 283.78 208.426 282.534 208.935C281.29 209.446 280.423 209.955 279.931 210.467L285.404 215.711C287.797 214.83 289.497 214.34 290.501 214.242C292.775 214.037 294.732 214.721 296.368 216.288C298.202 218.045 299.045 220.044 298.901 222.288C298.818 223.916 298.252 225.491 297.201 227.019ZM283.191 216.714L278.373 212.095C277.422 213.757 277.547 215.164 278.749 216.317C279.817 217.337 281.298 217.47 283.191 216.714ZM288.693 219.263L293.81 224.164C294.719 222.504 294.547 221.069 293.286 219.861C292.18 218.802 290.648 218.604 288.693 219.263Z" fill="#F39433"/>
<path d="M298.577 226.681C299.597 225.189 300.419 222.194 300.55 220.534C300.752 217.997 298.666 214.767 296.404 213.566C294.334 212.468 291.282 212.128 289.079 212.671C285.987 213.436 284.681 213.835 283.208 211.016C282.522 209.704 282.714 210.003 283.895 209.326C285.091 208.638 285.805 208.578 285.201 207.34C284.169 205.229 283.774 203.087 282.212 203.256C280.716 203.417 277.24 205.905 276.208 205.441C275.336 205.049 273.35 203.093 273.35 203.093C273.35 203.093 287.098 194.804 297.729 203.735C305.332 210.121 308.411 222.319 301.335 229.296C300.673 228.72 298.577 226.681 298.577 226.681Z" fill="#FCC133"/>
<path d="M295.457 230.061L297.85 232.356C297.85 232.356 283.553 241.036 273.339 230.819C261.546 219.522 270.465 206.11 270.465 206.11L273.786 209.292C273.786 209.292 269.168 214.323 274.422 219.779C280.785 226.392 285.109 221.614 286.014 221.697C286.915 221.776 289.925 224.567 289.941 225.268C289.956 225.968 285.774 227.905 285.503 228.789C285.228 229.671 287.773 234.069 288.801 234.075C289.827 234.079 295.457 230.061 295.457 230.061Z" fill="#FCC133"/>
<path d="M337.08 122.944L409.805 121.899C409.805 121.899 382.866 138.812 379.07 145.97C373.212 156.998 376.488 164.524 358.791 178.083C342.447 190.605 318.316 206.302 298.03 215.906C282.172 223.417 267.246 211.024 279.325 198.483C288.84 188.6 301.761 178.823 309.755 171.756C317.754 164.687 316.389 137.269 337.08 122.944Z" fill="#F8B894"/>
<path d="M457.47 29.5137L466.033 104.503L398.116 137.922L361.755 87.7649L457.47 29.5137Z" fill="#EA5B0C"/>
<path d="M151.025 285.64C165.107 294.703 193.396 290.407 193.396 290.407L193.909 266.486L150.966 254.464C150.966 254.464 136.937 276.579 151.025 285.64Z" fill="#C38769"/>
<path d="M131.752 261.384C143.037 272.077 170.47 275.328 170.47 275.328L174.289 251.708L137.685 234.557C137.685 234.557 120.464 250.693 131.752 261.384Z" fill="#C38769"/>
<path d="M121.6 241.98C132.89 252.674 160.321 255.926 160.321 255.926L164.139 232.304L127.532 215.151C127.532 215.151 110.315 231.287 121.6 241.98Z" fill="#C38769"/>
<path d="M110.289 145.452L77.0664 176.903L144.564 221.975L180.793 248.441C180.793 248.441 181.507 269.497 172.603 274.73C157.891 283.378 170.895 307.038 189.464 300.897C208.033 294.753 238.405 273.125 235.639 257.307C232.876 241.487 205.173 196.712 197.49 189.055C183.463 175.081 110.289 145.452 110.289 145.452Z" fill="#F8B894"/>
<path d="M96.472 182.172C112.163 183.552 127.762 185.129 143.328 187.611C146.043 188.044 148.006 186.782 149.051 184.949C157.749 188.961 164.581 195.157 170.225 203.599C177.207 214.044 183.571 224.166 192.242 233.331C199.042 240.514 208.186 248.957 208.296 259.643C208.308 260.627 208.344 266.637 206.6 266.796C203.9 267.044 201.157 265.639 198.828 264.423C192.792 261.277 187.438 257.045 181.514 253.709C181.24 253.552 180.967 253.431 180.697 253.325C180.861 250.427 180.793 248.443 180.793 248.443L144.564 221.977L83.7002 181.329C84.5484 181.267 85.4022 181.195 86.2504 181.126C89.7358 181.473 93.1721 181.882 96.472 182.172Z" fill="#DCA585"/>
<path d="M185.94 209.277L165.452 236.593L160.167 233.374L185.94 209.277Z" fill="#C38769"/>
<path d="M226.884 261.87L192.745 262.551L192.023 256.406L226.884 261.87Z" fill="#C38769"/>
<path d="M218.687 267.171L166.351 330.61C166.351 330.61 204.626 338.626 227.866 327.268C251.7 315.623 259.729 296.886 247.925 279.322C237.694 264.095 218.687 267.171 218.687 267.171Z" fill="#C4221C"/>
<path d="M218.688 267.171L166.351 330.61C166.351 330.61 151.203 294.555 157.939 269.581C164.842 243.966 181.715 232.525 201.202 240.776C218.095 247.927 218.688 267.171 218.688 267.171Z" fill="#8D1B0E"/>
<path d="M149.666 181.325L77.0664 176.902C77.0664 176.902 103.189 195.049 106.65 202.376C111.985 213.663 108.364 221.028 125.414 235.398C141.158 248.666 164.53 265.468 184.347 276.006C199.845 284.247 215.328 272.56 203.845 259.47C194.798 249.158 182.349 238.79 174.689 231.358C167.029 223.925 169.663 196.596 149.666 181.325Z" fill="#F8B894"/>
<path d="M21.7075 82.3975V156.908L87.9955 193.449L126.65 145.037L21.7075 82.3975Z" fill="#EA5B0C"/>
<path d="M502.733 378.695C502.733 379.146 502.422 379.369 501.805 379.369H501.551C501.213 379.314 500.65 378.807 499.863 377.851C498.625 376.501 497.723 375.713 497.161 375.486C496.822 375.318 496.487 375.232 496.148 375.232C495.809 375.232 495.247 375.346 494.459 375.569C493.727 375.851 493.306 375.992 493.193 375.992C491.11 376.779 489.592 377.709 488.636 378.776C487.623 379.903 486.947 381.028 486.61 382.152C486.159 384.572 485.851 386.317 485.682 387.385L485.345 389.411C484.895 392.112 484.613 393.858 484.501 394.644C483.994 398.245 483.712 401.117 483.658 403.252C483.488 406.179 483.405 409.752 483.405 413.972C483.405 421.963 483.995 427.73 485.177 431.276C485.571 432.234 486.19 432.993 487.034 433.555C487.933 434.118 488.89 434.4 489.904 434.4C491.425 434.4 492.774 433.892 493.956 432.881C494.63 432.094 495.362 431.335 496.15 430.602C497.502 429.197 498.71 428.493 499.779 428.493C500.681 428.493 501.131 429 501.131 430.011C501.131 430.519 500.961 430.941 500.624 431.278C499.891 432.011 499.104 432.685 498.259 433.304C497.133 434.373 495.362 435.612 492.941 437.018C490.858 438.2 489.172 438.79 487.877 438.79C486.301 438.902 484.895 438.453 483.657 437.44C482.36 436.596 481.067 435.386 479.772 433.811C479.209 433.137 478.816 432.545 478.59 432.039C478.253 431.195 478.001 430.464 477.831 429.845C476.031 424.104 475.131 417.071 475.131 408.743C475.131 400.922 475.889 393.86 477.409 387.557L479.098 381.563C479.605 380.157 480.279 378.807 481.123 377.512C482.136 375.882 483.908 374.67 486.442 373.882C488.467 373.32 490.578 373.038 492.773 373.038C493.897 373.038 495.024 373.123 496.148 373.292C496.71 373.349 497.807 373.966 499.441 375.149C501.071 376.276 502.112 377.232 502.564 378.019L502.733 378.695Z" fill="#E30613"/>
<path d="M544.935 377.682C544.935 377.682 544.948 377.71 544.977 377.765C545.005 377.822 545.018 377.822 545.018 377.765L544.935 378.524V378.946C544.765 380.355 544.681 381.733 544.681 383.083C544.566 384.772 544.513 386.01 544.513 386.798C544.456 387.756 544.342 389.639 544.174 392.453L543.835 397.263L543.666 400.724V400.893C543.273 401.682 543.074 402.441 543.074 403.172V405.452C543.074 405.847 543.188 406.381 543.413 407.055C543.299 409.026 543.244 411.275 543.244 413.808L543.328 417.521L543.498 424.78L543.413 426.891L543.328 429.085L543.244 431.111C543.244 431.673 543.299 432.968 543.413 434.994V435.079C542.962 435.698 542.654 436.344 542.485 437.02L541.387 438.118L540.88 438.877C540.486 438.877 540.162 438.905 539.908 438.962C539.655 439.017 539.473 439.045 539.361 439.045L538.683 439.129C536.544 438.68 535.194 437.779 534.632 436.427V434.823L534.717 434.655C534.997 431.336 535.139 426.103 535.139 418.956C535.139 412.879 535.109 407.392 535.054 402.498L527.627 402.581H522.563C520.76 402.581 518.933 402.498 517.076 402.328V402.413C517.076 403.034 517.048 403.397 516.993 403.511C516.767 408.801 516.654 413.218 516.654 416.762L516.739 423.43C516.739 424.668 516.709 425.541 516.654 426.046L516.569 427.735C516.569 429.929 516.597 431.927 516.654 433.727V433.81C516.146 434.484 515.838 435.134 515.726 435.751C515.275 436.088 514.937 436.455 514.713 436.849C514.319 437.3 514.094 437.553 514.039 437.608L512.519 437.692L511.928 437.775C509.789 437.438 508.411 436.565 507.792 435.158C507.792 434.371 507.82 433.864 507.875 433.638V433.216C508.155 428.827 508.297 423.538 508.297 417.347C508.297 411.495 508.269 407.725 508.214 406.037L508.128 394.558C508.128 386.849 508.409 380.039 508.973 374.132C508.973 373.569 509.732 373.064 511.25 372.613C512.712 372.163 513.784 371.938 514.458 371.938L517.159 372.191L517.581 372.867L517.835 373.374C518.006 373.713 518.089 374.05 518.089 374.387L518.343 374.895C518.343 375.008 518.356 375.078 518.386 375.105C518.414 375.133 518.428 375.12 518.428 375.063L518.343 375.908C518.343 375.964 518.312 376.021 518.259 376.076C518.202 376.133 518.174 376.218 518.174 376.33C517.892 381.788 517.695 386.515 517.581 390.51L517.159 400.048C517.667 400.048 517.975 400.077 518.087 400.132H521.633L525.684 400.215C530.58 400.215 533.674 400.245 534.969 400.3V395.404C534.969 387.301 535.223 380.633 535.728 375.4C535.84 374.893 536.571 374.416 537.922 373.965C539.272 373.46 540.37 373.263 541.213 373.374C542.226 373.374 543.125 373.405 543.915 373.46C544.083 373.628 544.168 373.742 544.168 373.797C544.223 373.853 544.253 373.924 544.253 374.007C544.253 374.09 544.282 374.162 544.337 374.217L544.59 376.158L544.844 377.002L544.929 377.595C544.935 377.653 544.935 377.682 544.935 377.682Z" fill="#E30613"/>
<path d="M571.86 398.867C572.029 400.162 572.14 401.146 572.199 401.82L572.536 404.522C572.65 406.379 572.958 408.687 573.464 411.444C573.519 412.006 573.744 413.583 574.14 416.171C574.251 417.129 574.407 418.212 574.604 419.42C574.8 420.632 575.011 422.023 575.236 423.598C575.743 428.214 575.967 431.616 575.91 433.812V434.235C575.91 434.685 575.855 434.994 575.741 435.162L575.149 435.753C574.643 435.867 574.306 435.867 574.138 435.753H573.967C573.235 435.304 572.814 434.994 572.703 434.825C572.477 434.375 572.364 433.926 572.364 433.475C572.307 433.307 572.25 433.11 572.195 432.885C572.139 432.659 572.11 432.491 572.11 432.377C571.997 432.04 571.856 429.846 571.688 425.795L571.603 422.587L571.264 420.732C571.264 419.325 571.181 418.004 571.01 416.764L570.253 412.712L570.082 411.699L569.999 411.109V410.772C569.999 410.041 569.717 409.59 569.155 409.422L566.875 408.492L563.163 407.902H562.909C562.515 407.902 562.235 408.127 562.065 408.577L561.476 411.362C561.194 412.826 560.883 415.217 560.548 418.538C560.152 423.04 559.645 426.47 559.028 428.835C558.971 429.004 558.928 429.257 558.901 429.594C558.873 429.931 558.831 430.353 558.776 430.861C558.719 431.086 558.522 431.902 558.183 433.309C558.07 433.646 557.705 434.435 557.087 435.673C556.972 436.01 556.663 436.181 556.16 436.181L555.567 436.518C555.003 436.518 554.639 436.489 554.471 436.433H553.878L552.78 436.181C552.386 436.181 552.133 436.126 552.023 436.012C551.684 435.901 551.43 435.732 551.264 435.505C551.771 431.453 552.305 426.756 552.867 421.41L553.965 410.775C554.357 408.863 554.556 407.483 554.556 406.641L554.895 404.53L555.484 403.095L555.908 400.815V400.308C555.908 399.689 555.851 399.21 555.737 398.873C555.963 397.689 556.076 396.65 556.076 395.749C556.245 393.723 556.442 392.203 556.665 391.192C556.72 390.516 556.792 389.912 556.877 389.378C556.96 388.844 557.031 388.352 557.087 387.901L557.509 384.272C557.509 384.158 557.595 384.018 557.763 383.85L557.848 383.259L558.945 378.195C558.776 377.632 558.973 376.902 559.537 376C560.213 374.988 560.915 374.397 561.646 374.226C562.095 374.226 562.519 374.143 562.913 373.973H563.081C563.53 373.973 563.897 373.946 564.179 373.889C564.46 373.778 564.711 373.763 564.937 373.848C565.162 373.933 565.302 373.975 565.361 373.975C565.416 373.92 565.472 373.863 565.529 373.806C565.584 373.751 565.669 373.723 565.783 373.723C565.895 373.723 566.037 373.78 566.205 373.891H566.544L567.135 373.638C567.979 373.638 568.598 374.145 568.992 375.158C569.441 376.171 569.694 377.072 569.751 377.86C569.806 378.31 569.876 378.676 569.961 378.956C570.045 379.238 570.086 379.406 570.086 379.463C570.2 380.139 570.257 380.701 570.257 381.152L570.425 382.926L570.594 385.796C570.707 386.866 570.847 388.441 571.016 390.522L571.355 393.645C571.41 394.151 571.495 394.94 571.608 396.008C571.722 397.078 571.777 397.612 571.777 397.612C571.777 397.612 571.802 398.023 571.86 398.867ZM568.231 396.926C567.441 391.074 566.964 388.009 566.796 387.725L566.288 389.666C566.063 390.116 565.809 391.101 565.529 392.621V393.466C565.416 393.691 565.332 393.916 565.276 394.14C565.219 394.365 565.162 394.59 565.107 394.815C564.937 395.605 564.628 397.263 564.179 399.795L563.25 404.691C563.195 404.747 563.167 404.889 563.167 405.113C563.167 405.338 563.25 405.507 563.42 405.62C563.589 405.734 563.812 405.789 564.096 405.789C564.939 405.789 565.811 405.929 566.713 406.211L569.329 405.789C569.384 405.563 569.274 404.579 568.992 402.833L568.231 396.926Z" fill="#E30613"/>
<path d="M611.7 432.63L612.037 433.22C612.431 433.839 612.711 434.458 612.882 435.078C613.05 435.697 613.162 436.062 613.219 436.176C613.219 436.401 613.177 436.569 613.094 436.681C613.009 436.795 612.853 436.935 612.63 437.103C612.46 437.217 612.221 437.427 611.913 437.736C611.602 438.044 611.307 438.2 611.025 438.2C610.574 438.2 610.237 438.116 610.012 437.946C609.11 437.384 608.183 436.145 607.227 434.233C605.371 430.182 603.033 425.428 600.222 419.968L596.761 413.046L595.58 410.935L594.567 409.08L593.3 406.632C593.018 405.787 592.681 405 592.287 404.267L589.756 400.13C589.474 400.806 589.334 401.48 589.334 402.156V404.521C589.334 405.083 589.417 405.619 589.587 406.124C589.531 408.093 589.502 410.316 589.502 412.792L589.587 418.194C589.642 418.983 589.671 420.784 589.671 423.597C589.671 424.667 589.642 425.341 589.587 425.623L589.502 427.902C589.502 430.941 589.531 432.881 589.587 433.726L589.671 433.894C589.22 434.345 588.912 434.964 588.743 435.752C588.404 435.977 588.039 436.342 587.647 436.85L587.223 437.609C586.49 437.609 586.011 437.637 585.788 437.692C585.674 437.692 585.589 437.721 585.534 437.775H585.112C583.141 437.327 581.874 436.482 581.314 435.244V433.555L581.397 433.302L581.568 430.263C581.452 429.701 581.397 429.195 581.397 428.745C581.342 428.294 581.314 427.592 581.314 426.634L581.568 418.953L581.651 416.927L581.819 412.707L581.651 406.63C581.596 402.972 581.568 398.949 581.568 394.558C581.568 387.862 581.846 381.336 582.41 374.977C582.524 374.303 583.395 373.712 585.027 373.205V373.119C585.14 373.008 585.646 372.951 586.547 372.951C586.715 372.896 587.052 372.866 587.56 372.866C588.067 372.866 588.402 372.896 588.573 372.951C589.977 372.951 590.905 372.979 591.358 373.034C591.806 373.034 592.117 373.049 592.285 373.078C592.456 373.106 592.565 373.119 592.624 373.119C595.606 373.513 598.109 374.5 600.137 376.073C601.373 376.974 602.613 378.352 603.851 380.21C604.864 382.067 605.371 383.727 605.371 385.189C605.371 386.033 605.229 386.849 604.947 387.637C604.328 389.212 603.4 390.621 602.162 391.857C601.093 392.927 599.714 393.856 598.026 394.642C597.969 394.642 597.518 394.784 596.674 395.064C595.941 395.346 595.324 395.515 594.818 395.571C594.48 395.628 594.059 395.655 593.552 395.655H593.045L592.622 395.823L592.369 396.16C592.2 396.329 592.817 397.849 594.224 400.717C595.068 402.463 595.687 403.673 596.081 404.347C596.473 405.022 596.727 405.473 596.84 405.696C597.796 407.328 598.33 408.286 598.444 408.567C599.006 409.748 600.977 413.434 604.353 419.623L607.56 425.447L610.006 429.835C610.513 430.791 610.907 431.48 611.189 431.903C611.475 432.334 611.642 432.575 611.7 432.63ZM595.492 392.031C596.168 391.637 596.814 391.132 597.433 390.511C597.995 390.062 598.586 389.274 599.207 388.148C600.332 386.516 600.896 384.884 600.896 383.252C600.896 381.62 600.445 380.185 599.546 378.947C599.207 378.273 598.026 377.569 596 376.838C593.974 376.05 592.34 375.656 591.104 375.656C591.104 376.05 591.132 376.079 591.189 375.74C591.189 376.247 591.159 376.556 591.104 376.667L591.021 377.175C590.964 379.369 590.894 381.045 590.81 382.198C590.725 383.35 590.653 383.956 590.598 384.011L590.176 393.042C592.032 392.989 593.806 392.65 595.492 392.031Z" fill="#E30613"/>
<path d="M625.961 425.708C625.848 427.622 625.539 430.407 625.034 434.065C624.753 435.471 624.471 436.399 624.191 436.85C623.57 437.639 622.811 438.031 621.912 438.031C620.954 438.031 620.083 437.722 619.295 437.103C618.506 436.428 618.114 435.668 618.114 434.824L618.282 431.617C618.396 430.043 618.451 428.974 618.451 428.41L618.621 419.716V406.465C618.621 397.069 618.704 389.388 618.875 383.422C619.043 377.402 619.38 374.335 619.886 374.221C620.393 374.221 620.844 374.193 621.238 374.138L622.926 373.884C623.375 373.773 623.686 373.801 623.854 373.968C624.023 374.024 624.331 374.278 624.782 374.727C625.121 375.121 625.456 375.317 625.795 375.317V379.286V382.071C625.795 385.166 625.88 389.218 626.048 394.225L626.217 398.614C626.272 399.852 626.302 401.935 626.302 404.86C626.357 406.662 626.387 410.854 626.387 417.436C626.27 421.319 626.132 424.078 625.961 425.708Z" fill="#E30613"/>
<path d="M654.828 374.559C654.828 374.896 654.688 375.149 654.406 375.318C654.237 375.657 654.04 375.854 653.813 375.908C652.802 376.022 652.013 376.077 651.45 376.077H650.438L648.582 376.331C648.077 376.387 647.823 376.753 647.823 377.429V378.779L647.991 379.201C648.046 379.314 648.077 379.455 648.077 379.623C648.077 380.017 648.105 380.045 648.162 379.706V380.466C648.105 380.522 648.077 380.664 648.077 380.888L647.908 382.491C647.963 383.112 647.991 384.462 647.991 386.543C647.991 389.19 647.766 393.801 647.317 400.386L646.895 408.826C646.838 410.458 646.81 415.86 646.81 425.032L646.727 426.721L646.642 428.578C646.642 431.11 646.67 432.744 646.727 433.474V433.558C646.388 433.895 646.106 434.432 645.882 435.161C645.826 435.275 645.545 435.583 645.04 436.089C645.04 436.257 644.898 436.483 644.616 436.765C643.942 436.765 643.489 436.793 643.266 436.848L642.844 436.931C641.041 436.483 639.86 435.722 639.298 434.652L639.383 433.385V433.217C639.495 432.429 639.606 430.994 639.72 428.912C639.496 428.236 639.383 427.675 639.383 427.223C639.383 426.435 639.468 425.676 639.637 424.943L639.805 423.255V419.54C639.805 414.252 639.775 410.818 639.72 409.243L639.637 397.847C639.637 389.744 639.89 383.47 640.396 379.025C640.396 378.799 640.507 378.603 640.733 378.434C640.733 377.758 640.704 377.421 640.649 377.421L637.777 377.59L637.02 377.675C636.85 377.732 636.456 377.758 635.837 377.758C634.936 377.758 634.176 377.59 633.559 377.251C632.995 376.857 632.715 376.238 632.715 375.395C632.715 375.002 632.914 374.691 633.307 374.466C633.362 374.354 633.476 374.242 633.644 374.129L635.67 373.875L637.276 373.707L639.553 373.621H640.905C641.691 373.567 642.62 373.538 643.69 373.538L644.029 373.621C645.21 373.567 646.505 373.538 647.912 373.538H648.586L650.441 373.284C650.78 373.116 651.089 373.031 651.371 373.031L651.96 373.116L652.804 373.031C653.592 373.031 654.182 373.284 654.576 373.79C654.746 374.015 654.83 374.127 654.83 374.127C654.83 374.127 654.828 374.278 654.828 374.559Z" fill="#E30613"/>
<path d="M687.662 409.333C687.662 413.104 687.632 415.552 687.577 416.676C687.522 421.233 687.268 425.09 686.818 428.24C686.763 429.422 686.593 430.548 686.311 431.616C686.03 433.136 685.606 434.289 685.046 435.077C683.414 438.96 681.163 441.828 678.293 443.685C675.705 445.374 673.173 446.217 670.697 446.217C668.558 446.217 666.644 445.626 664.957 444.443C663.156 443.261 661.804 441.544 660.905 439.295C660.172 437.663 659.724 436.538 659.553 435.919C659.216 434.681 659.048 433.782 659.048 433.218C659.048 432.487 659.245 431.839 659.639 431.277C660.201 430.489 661.214 430.096 662.677 430.096C664.027 430.096 665.18 430.378 666.136 430.94C667.263 431.559 667.851 432.29 667.91 433.134L667.995 436.425C668.107 438.227 668.332 439.66 668.671 440.73C668.951 441.404 669.249 441.911 669.557 442.25C669.866 442.587 670.246 442.784 670.697 442.841C670.809 442.896 671.06 442.924 671.456 442.924C672.749 442.924 673.931 442.474 675 441.574C675.956 440.785 676.941 439.605 677.956 438.028C678.348 432.741 678.544 427.169 678.544 421.317L678.376 407.896C676.405 408.74 674.607 409.162 672.975 409.162C670.555 409.162 668.219 408.431 665.97 406.968C663.775 405.393 662.283 403.395 661.498 400.974C660.934 399.681 660.568 398.104 660.4 396.246L660.231 394.389C660.006 392.928 659.835 391.998 659.724 391.604C659.608 390.254 659.553 389.438 659.553 389.156V388.566L659.47 381.981C659.47 379.506 659.639 377.481 659.977 375.904C660.258 374.274 660.848 373.344 661.748 373.119C663.099 372.782 664.196 372.613 665.04 372.613C666.67 372.613 667.825 373.119 668.501 374.132C669.118 375.37 669.428 376.916 669.428 378.774L669.175 383.67C669.118 384.908 669.061 385.978 669.006 386.877C668.95 387.778 668.891 388.566 668.836 389.241C668.781 390.985 668.667 393.096 668.499 395.572C668.442 396.078 668.414 397.261 668.414 399.117L668.499 401.228C669.116 402.072 669.877 402.86 670.776 403.592C671.507 404.266 672.238 404.69 672.971 404.857C673.645 405.025 674.237 405.111 674.743 405.111C676.373 405.111 677.556 404.351 678.287 402.831V388.566L678.118 382.573C678.118 378.297 678.906 375.372 680.481 373.795C681.776 372.613 682.958 372.022 684.027 372.022C685.264 372.022 686.25 372.698 686.983 374.048C687.768 375.512 688.164 377.087 688.164 378.776C688.107 381.759 687.967 384.009 687.74 385.527C687.74 388.734 687.571 391.858 687.234 394.897L687.571 406.714L687.662 409.333Z" fill="#E30613"/>
<path d="M450.582 516.984C449.066 523.682 446.476 529.862 442.81 535.521C439.221 540.864 434.558 544.213 428.817 545.566L428.577 545.688L427.502 546.045C426.464 546.842 424.87 547.361 422.719 547.6C422.719 547.681 422.638 547.798 422.479 547.959L421.761 549.035C420.644 549.035 419.927 549.075 419.609 549.154L418.772 549.275C415.902 548.635 414.067 547.48 413.272 545.807V543.654L413.391 543.175C413.87 536.717 414.109 529.462 414.109 521.411L413.99 502.874L413.749 483.739C413.749 472.419 414.107 463.369 414.824 456.592C414.824 456.194 415.341 455.755 416.379 455.276C417.017 454.878 418.054 454.481 419.489 454.079C419.968 454 420.326 453.92 420.565 453.839H420.805L425.826 454.079L426.305 454.916L426.545 455.274L426.784 455.753C428.698 456.073 430.69 457.029 432.763 458.623C434.677 460.058 437.068 461.972 439.938 464.363C443.765 467.553 446.875 471.819 449.268 477.16C451.498 482.582 452.776 488.044 453.094 493.544V497.491C452.933 503.711 452.854 506.819 452.854 506.819C452.854 506.819 452.097 510.21 450.582 516.984ZM426.067 480.03L426.545 491.632L426.665 496.774L427.023 513.875V534.205L427.144 542.219L428.819 541.74C429.376 541.661 429.895 541.462 430.372 541.142L432.884 539.109C434.798 537.914 436.112 536.837 436.83 535.879C438.185 534.285 439.101 533.09 439.58 532.291C440.218 531.257 440.697 530.22 441.016 529.182L441.256 528.465C442.292 526.712 443.287 522.724 444.245 516.505L444.724 513.156C445.122 511.643 445.442 508.493 445.68 503.709C445.76 502.035 445.8 499.843 445.8 497.132C445.8 495.378 445.76 494.182 445.68 493.544C445.68 490.912 445.281 488.124 444.484 485.172C443.446 481.745 442.331 478.396 441.135 475.126C440.815 474.25 439.821 472.576 438.145 470.104C436.549 467.792 434.836 465.721 433.001 463.884C431.167 462.052 429.652 461.134 428.458 461.134C427.899 461.134 427.462 461.414 427.144 461.97L426.067 480.03Z" fill="#E30613"/>
<path d="M498.058 504.069C498.058 511.324 497.659 517.903 496.861 523.803C495.983 530.101 494.667 535.325 492.914 539.469C491.479 542.659 489.207 545.251 486.097 547.243C483.065 549.314 479.879 550.351 476.53 550.351C473.179 550.351 470.311 549.276 467.918 547.122V547.243H466.842C463.891 543.415 461.7 538.553 460.265 532.651L460.504 520.573L460.265 500.482C460.504 499.764 460.701 498.808 460.863 497.611C460.863 492.271 460.901 488.802 460.983 487.206L460.863 486.369C460.941 486.29 460.983 486.091 460.983 485.771C462.098 465.521 467.757 455.394 477.965 455.394C481.712 455.394 485.019 456.469 487.891 458.624C490.282 460.458 492.077 462.971 493.272 466.159C494.786 470.305 495.943 475.568 496.74 481.945C497.058 485.135 497.257 487.129 497.339 487.924C497.819 492.469 498.058 497.85 498.058 504.069ZM490.404 499.285C490.404 496.337 490.383 494.103 490.345 492.589C490.301 491.074 490.284 489.999 490.284 489.359C490.205 488.562 490.165 486.809 490.165 484.097C490.165 481.786 490.123 480.031 490.046 478.834C489.966 477.081 489.726 475.485 489.328 474.052C488.291 469.588 486.416 465.402 483.707 461.494C482.749 460.139 481.793 459.461 480.835 459.461C479.48 459.461 478.164 460.697 476.89 463.168C475.693 465.64 474.856 467.992 474.377 470.224C473.181 477.56 472.543 489.438 472.463 505.862L472.344 511.722V516.506C472.344 525.675 472.901 533.846 474.018 541.022C474.018 541.501 474.056 541.919 474.139 542.279C474.216 542.638 474.298 542.936 474.377 543.176C474.618 543.814 474.936 544.333 475.335 544.73C475.814 545.209 476.371 545.448 477.009 545.448C478.684 545.448 480.438 544.054 482.272 541.262C484.025 538.63 485.301 536.199 486.098 533.967C487.933 529.264 489.247 522.805 490.046 514.594C490.284 511.245 490.404 506.144 490.404 499.285Z" fill="#E30613"/>
<path d="M549.243 455.514L549.123 456.351L549.004 456.949L548.525 465.081L548.646 467.593C548.646 468.07 548.665 468.43 548.705 468.669C548.745 468.907 548.766 469.07 548.766 469.148L548.525 477.639C548.364 481.866 548.207 484.695 548.048 486.13L547.808 490.914V491.153C547.331 491.87 547.09 492.868 547.09 494.144V497.133C547.09 497.931 547.211 498.688 547.448 499.405C547.368 502.116 547.329 505.187 547.329 508.614L547.448 516.03V523.326V526.556L547.329 529.426V531.698L547.209 533.014L547.448 537.439V537.56C546.81 538.677 546.45 539.553 546.373 540.191C545.733 540.75 545.297 541.308 545.059 541.865L544.339 542.702L543.862 542.823C543.461 543.222 543.025 543.421 542.546 543.421C541.509 543.421 540.593 543.344 539.795 543.183C538.998 542.704 538.321 542.147 537.764 541.509C536.965 540.313 536.528 539.637 536.448 539.476V538.997C534.373 534.93 532.461 530.466 530.708 525.602C529.193 521.297 527.241 515.477 524.848 508.141C524.767 507.823 524.549 507.105 524.189 505.988C523.832 504.873 523.252 503.16 522.455 500.846C522.217 499.97 521.259 497.578 519.585 493.671L517.313 487.571L517.194 490.92V491.158C516.715 491.876 516.476 492.874 516.476 494.15V497.139C516.476 497.936 516.598 498.693 516.834 499.411L516.715 508.62L516.834 516.036L516.954 523.332L516.834 526.562C516.753 526.961 516.715 527.918 516.715 529.432C516.715 533.658 516.753 536.329 516.834 537.444C516.834 537.526 516.874 537.565 516.954 537.565C516.793 537.647 516.552 538.043 516.236 538.76C516.236 540.434 516.035 541.791 515.638 542.827C515.318 543.783 514.324 544.262 512.648 544.262L511.452 544.381C510.734 544.381 509.856 544.182 508.82 543.783C508.103 543.304 507.663 542.668 507.506 541.869C506.548 540.992 505.952 540.195 505.711 539.478V538.4L505.234 537.683C505.234 536.647 505.274 535.969 505.354 535.65V535.292C505.833 529.072 506.071 521.977 506.071 514.004L505.952 497.141C505.791 492.039 505.711 486.298 505.711 479.92C505.711 468.998 506.069 460.425 506.787 454.208C506.787 453.413 507.745 452.733 509.659 452.175C511.573 451.457 512.928 451.219 513.726 451.457L517.073 451.698C517.073 451.857 517.152 452.016 517.313 452.177C517.313 452.337 517.391 452.457 517.552 452.534L517.671 452.892C517.83 453.053 517.91 453.172 517.91 453.25L518.269 454.447C519.146 456.281 519.945 458.913 520.662 462.339C520.98 463.775 521.321 465.371 521.679 467.124C522.037 468.879 522.416 470.753 522.815 472.745L524.131 479.801C524.767 483.549 525.566 487.735 526.522 492.359C527.319 496.107 527.997 498.858 528.555 500.611C529.193 502.207 529.631 503.404 529.871 504.199C531.306 508.025 532.421 510.858 533.22 512.69C534.176 515.483 535.172 518.152 536.21 520.702C536.128 520.146 536.09 518.55 536.09 515.918V511.253C536.09 509.101 536.049 507.188 535.969 505.513C535.89 503.998 535.85 502.164 535.85 500.011V479.441L535.61 474.778C535.61 469.916 535.967 466.845 536.687 465.569C536.764 463.498 537.003 459.71 537.404 454.208C537.563 453.413 538.519 452.733 540.274 452.175C542.189 451.457 543.544 451.219 544.341 451.457L547.692 451.698L547.931 452.177C548.09 452.337 548.169 452.457 548.169 452.534L548.527 453.252L549.006 454.448L549.125 455.166V455.764L549.243 455.514Z" fill="#E30613"/>
<path d="M587.274 491.153C587.514 492.988 587.671 494.383 587.753 495.339L588.232 499.165C588.391 501.797 588.828 505.067 589.546 508.972C589.625 509.771 589.943 512.004 590.504 515.671C590.663 517.028 590.88 518.562 591.16 520.275C591.439 521.99 591.74 523.963 592.06 526.195C592.777 532.733 593.093 537.557 593.016 540.665V541.264C593.016 541.902 592.936 542.339 592.777 542.579L591.94 543.416C591.223 543.577 590.744 543.577 590.505 543.416H590.265C589.227 542.778 588.631 542.339 588.472 542.1C588.152 541.462 587.993 540.826 587.993 540.186C587.914 539.948 587.832 539.669 587.755 539.349C587.673 539.031 587.635 538.793 587.635 538.632C587.474 538.153 587.277 535.044 587.039 529.304L586.92 524.76L586.441 522.129C586.441 520.137 586.321 518.263 586.083 516.508L585.007 510.767L584.769 509.332L584.65 508.495V508.016C584.65 506.983 584.25 506.343 583.453 506.104L580.225 504.788L574.964 503.952H574.604C574.044 503.952 573.646 504.272 573.408 504.908L572.571 508.853C572.171 510.928 571.734 514.315 571.255 519.018C570.696 525.398 569.979 530.26 569.102 533.609C569.023 533.848 568.962 534.207 568.923 534.686C568.883 535.164 568.822 535.762 568.743 536.479C568.663 536.799 568.385 537.956 567.906 539.948C567.745 540.425 567.228 541.544 566.351 543.295C566.191 543.774 565.755 544.013 565.038 544.013L564.201 544.492C563.402 544.492 562.887 544.452 562.646 544.372H561.81L560.255 544.014C559.697 544.014 559.339 543.935 559.18 543.776C558.703 543.617 558.343 543.376 558.104 543.058C558.822 537.318 559.579 530.661 560.376 523.087L561.931 508.018C562.487 505.309 562.768 503.355 562.768 502.159L563.247 499.169L564.081 497.136L564.68 493.906V493.189C564.68 492.312 564.598 491.634 564.439 491.155C564.757 489.482 564.918 488.007 564.918 486.731C565.159 483.86 565.435 481.708 565.755 480.273C565.833 479.317 565.935 478.459 566.054 477.702C566.173 476.946 566.272 476.248 566.351 475.61L566.95 470.468C566.95 470.309 567.069 470.108 567.309 469.869L567.429 469.033L568.981 461.857C568.743 461.06 569.021 460.025 569.818 458.747C570.776 457.312 571.77 456.475 572.807 456.236C573.445 456.236 574.042 456.117 574.602 455.877H574.841C575.479 455.877 575.996 455.839 576.395 455.757C576.793 455.598 577.15 455.577 577.47 455.697C577.789 455.818 577.987 455.877 578.067 455.877C578.146 455.799 578.226 455.719 578.307 455.638C578.385 455.56 578.504 455.519 578.665 455.519C578.824 455.519 579.023 455.598 579.261 455.757H579.74L580.577 455.399C581.774 455.399 582.65 456.117 583.209 457.552C583.847 458.987 584.205 460.263 584.284 461.378C584.362 462.018 584.464 462.535 584.583 462.933C584.703 463.332 584.763 463.573 584.763 463.65C584.922 464.606 585.002 465.405 585.002 466.043L585.242 468.556L585.481 472.622C585.64 474.139 585.839 476.371 586.077 479.321L586.556 483.745C586.636 484.463 586.753 485.58 586.914 487.094C587.073 488.609 587.153 489.366 587.153 489.366C587.153 489.366 587.194 489.957 587.274 491.153ZM582.132 488.402C581.013 480.112 580.337 475.767 580.098 475.367L579.381 478.118C579.061 478.756 578.703 480.152 578.305 482.304V483.501C578.144 483.821 578.025 484.139 577.948 484.457C577.866 484.777 577.787 485.095 577.707 485.413C577.469 486.53 577.031 488.881 576.393 492.469L575.077 499.406C574.998 499.487 574.958 499.686 574.958 500.004C574.958 500.322 575.077 500.563 575.316 500.722C575.554 500.883 575.873 500.962 576.272 500.962C577.469 500.962 578.703 501.161 579.979 501.558L583.688 500.962C583.765 500.644 583.606 499.249 583.209 496.776L582.132 488.402Z" fill="#E30613"/>
<path d="M631.404 456.709C631.404 457.188 631.205 457.546 630.807 457.784C630.569 458.263 630.288 458.544 629.97 458.621C628.535 458.782 627.418 458.86 626.621 458.86H625.186L622.554 459.218C621.837 459.297 621.479 459.816 621.479 460.772V462.686L621.718 463.284C621.795 463.445 621.839 463.642 621.839 463.883C621.839 464.441 621.879 464.481 621.958 464.002V465.077C621.879 465.157 621.839 465.357 621.839 465.675L621.598 467.947C621.678 468.826 621.72 470.74 621.72 473.688C621.72 477.436 621.4 483.974 620.764 493.302L620.165 505.261C620.086 507.575 620.044 515.229 620.044 528.222L619.925 530.614L619.806 533.245C619.806 536.833 619.843 539.146 619.925 540.182V540.301C619.446 540.78 619.046 541.538 618.728 542.573C618.647 542.734 618.249 543.171 617.532 543.889C617.532 544.128 617.333 544.449 616.935 544.845C615.977 544.845 615.339 544.887 615.021 544.966L614.423 545.086C611.871 544.449 610.197 543.372 609.402 541.856L609.521 540.061V539.822C609.681 538.707 609.84 536.674 610 533.722C609.68 532.766 609.521 531.969 609.521 531.329C609.521 530.214 609.643 529.137 609.879 528.099L610.12 525.708V520.447C610.12 512.953 610.078 508.09 610 505.856L609.879 489.71C609.879 478.23 610.237 469.341 610.955 463.042C610.955 462.724 611.114 462.444 611.434 462.205C611.434 461.249 611.392 460.77 611.312 460.77L607.248 461.009L606.172 461.128C605.934 461.209 605.373 461.247 604.497 461.247C603.221 461.247 602.145 461.009 601.269 460.53C600.47 459.973 600.072 459.095 600.072 457.898C600.072 457.34 600.351 456.902 600.909 456.582C600.987 456.423 601.148 456.264 601.388 456.103L604.258 455.745L606.53 455.507L609.76 455.388H611.674C612.789 455.308 614.103 455.268 615.62 455.268L616.099 455.388C617.772 455.308 619.607 455.268 621.598 455.268H622.556L625.188 454.911C625.667 454.672 626.102 454.551 626.502 454.551L627.339 454.672L628.535 454.551C629.65 454.551 630.487 454.91 631.046 455.628C631.286 455.946 631.404 456.105 631.404 456.105C631.404 456.105 631.404 456.311 631.404 456.709Z" fill="#E30613"/>
<path d="M650.896 529.184C650.735 531.896 650.298 535.843 649.58 541.023C649.181 543.016 648.783 544.332 648.386 544.97C647.505 546.087 646.43 546.644 645.156 546.644C643.798 546.644 642.564 546.207 641.449 545.328C640.33 544.372 639.773 543.295 639.773 542.098L640.014 537.554C640.173 535.322 640.252 533.808 640.252 533.011L640.491 520.693V501.918C640.491 488.603 640.61 477.721 640.849 469.269C641.089 460.738 641.566 456.393 642.286 456.234C643.003 456.234 643.639 456.194 644.2 456.115L646.591 455.757C647.229 455.598 647.666 455.638 647.907 455.876C648.145 455.956 648.583 456.316 649.221 456.954C649.7 457.512 650.179 457.79 650.658 457.79V463.411V467.359C650.658 471.744 650.777 477.486 651.017 484.58L651.256 490.799C651.334 492.554 651.375 495.504 651.375 499.65C651.453 502.202 651.495 508.141 651.495 517.469C651.332 522.965 651.135 526.873 650.896 529.184Z" fill="#E30613"/>
<path d="M698.854 504.069C698.854 511.324 698.454 517.903 697.657 523.803C696.779 530.101 695.463 535.325 693.71 539.469C692.275 542.659 690.003 545.251 686.892 547.243C683.861 549.314 680.675 550.351 677.326 550.351C673.975 550.351 671.107 549.276 668.713 547.122V547.243H667.638C664.687 543.415 662.496 538.553 661.061 532.651L661.3 520.573L661.061 500.482C661.3 499.764 661.496 498.808 661.659 497.611C661.659 492.271 661.697 488.802 661.779 487.206L661.659 486.369C661.737 486.29 661.779 486.091 661.779 485.771C662.894 465.521 668.553 455.394 678.761 455.394C682.508 455.394 685.817 456.469 688.687 458.624C691.078 460.458 692.873 462.971 694.068 466.159C695.582 470.305 696.739 475.568 697.536 481.945C697.854 485.135 698.053 487.129 698.134 487.924C698.615 492.469 698.854 497.85 698.854 504.069ZM691.2 499.285C691.2 496.337 691.179 494.103 691.141 492.589C691.099 491.074 691.08 489.999 691.08 489.359C691.001 488.562 690.961 486.809 690.961 484.097C690.961 481.786 690.919 480.031 690.84 478.834C690.76 477.081 690.52 475.485 690.122 474.052C689.085 469.588 687.21 465.402 684.501 461.494C683.543 460.139 682.587 459.461 681.629 459.461C680.274 459.461 678.958 460.697 677.684 463.168C676.487 465.64 675.65 467.992 675.171 470.224C673.975 477.56 673.337 489.438 673.257 505.862L673.138 511.722V516.506C673.138 525.675 673.695 533.846 674.812 541.022C674.812 541.501 674.851 541.919 674.933 542.279C675.01 542.638 675.092 542.936 675.171 543.176C675.412 543.814 675.73 544.333 676.129 544.73C676.608 545.209 677.165 545.448 677.803 545.448C679.478 545.448 681.232 544.054 683.066 541.262C684.819 538.63 686.095 536.199 686.892 533.967C688.727 529.264 690.041 522.805 690.84 514.594C691.078 511.245 691.2 506.144 691.2 499.285Z" fill="#E30613"/>
<path d="M750.038 455.514L749.918 456.351L749.799 456.949L749.32 465.081L749.439 467.593C749.439 468.07 749.458 468.43 749.498 468.669C749.538 468.907 749.559 469.07 749.559 469.148L749.318 477.639C749.157 481.866 749 484.695 748.841 486.13L748.601 490.914V491.153C748.124 491.87 747.883 492.868 747.883 494.144V497.133C747.883 497.931 748.004 498.688 748.243 499.405C748.163 502.116 748.124 505.187 748.124 508.614L748.243 516.03V523.326V526.556L748.124 529.426V531.698L748.002 533.014L748.241 537.439V537.56C747.603 538.677 747.243 539.553 747.166 540.191C746.526 540.75 746.09 541.308 745.852 541.865L745.132 542.702L744.655 542.823C744.254 543.222 743.818 543.421 743.339 543.421C742.302 543.421 741.385 543.344 740.588 543.183C739.791 542.704 739.114 542.147 738.557 541.509C737.758 540.313 737.321 539.637 737.241 539.476V538.997C735.166 534.93 733.254 530.466 731.501 525.602C729.986 521.297 728.034 515.477 725.641 508.141C725.56 507.823 725.342 507.105 724.982 505.988C724.625 504.873 724.045 503.16 723.248 500.846C723.01 499.97 722.052 497.578 720.378 493.671L718.106 487.571L717.985 490.92V491.158C717.506 491.876 717.267 492.874 717.267 494.15V497.139C717.267 497.936 717.389 498.693 717.627 499.411L717.506 508.62L717.627 516.036L717.746 523.332L717.627 526.562C717.546 526.961 717.506 527.918 717.506 529.432C717.506 533.658 717.546 536.329 717.627 537.444C717.627 537.526 717.665 537.565 717.746 537.565C717.586 537.647 717.345 538.043 717.029 538.76C717.029 540.434 716.828 541.791 716.431 542.827C716.111 543.783 715.117 544.262 713.441 544.262L712.245 544.381C711.527 544.381 710.649 544.182 709.613 543.783C708.896 543.304 708.456 542.668 708.299 541.869C707.341 540.992 706.745 540.195 706.504 539.478V538.4L706.027 537.683C706.027 536.647 706.067 535.969 706.147 535.65V535.292C706.626 529.072 706.864 521.977 706.864 514.004L706.745 497.141C706.584 492.039 706.504 486.298 706.504 479.92C706.504 468.998 706.862 460.425 707.58 454.208C707.58 453.413 708.538 452.733 710.452 452.175C712.366 451.457 713.721 451.219 714.517 451.457L717.864 451.698C717.864 451.857 717.943 452.016 718.104 452.177C718.104 452.337 718.182 452.457 718.343 452.534L718.462 452.892C718.621 453.053 718.701 453.172 718.701 453.25L719.059 454.447C719.935 456.281 720.734 458.913 721.452 462.339C721.77 463.775 722.11 465.371 722.468 467.124C722.826 468.879 723.205 470.753 723.604 472.745L724.92 479.801C725.556 483.549 726.355 487.735 727.311 492.359C728.108 496.107 728.786 498.858 729.344 500.611C729.982 502.207 730.42 503.404 730.66 504.199C732.095 508.025 733.21 510.858 734.009 512.69C734.966 515.483 735.961 518.152 736.999 520.702C736.917 520.146 736.878 518.55 736.878 515.918V511.253C736.878 509.101 736.836 507.188 736.757 505.513C736.677 503.998 736.637 502.164 736.637 500.011V479.441L736.397 474.778C736.397 469.916 736.755 466.845 737.474 465.569C737.552 463.498 737.79 459.71 738.192 454.208C738.351 453.413 739.307 452.733 741.062 452.175C742.976 451.457 744.331 451.219 745.126 451.457L748.478 451.698L748.716 452.177C748.875 452.337 748.955 452.457 748.955 452.534L749.312 453.252L749.791 454.448L749.911 455.166V455.764L750.038 455.514Z" fill="#E30613"/>
<path d="M759.659 401.189C759.659 417.03 746.817 429.872 730.977 429.872C715.138 429.872 702.298 417.032 702.298 401.189C702.298 385.349 715.138 372.507 730.977 372.507C746.817 372.507 759.659 385.349 759.659 401.189Z" fill="#E30613"/>
<path d="M729.835 396.985C730.191 400.018 730.482 402.184 730.713 403.481C730.965 404.923 731.486 407.36 732.283 410.791C734.437 407.612 735.732 404.829 736.173 402.445C735.63 402.404 735.272 402.371 735.105 402.351C733.956 402.309 733.212 402.173 732.877 401.942C732.459 401.65 732.25 401.22 732.25 400.656C732.25 400.154 732.385 399.747 732.657 399.433C732.993 399.056 733.432 398.869 733.975 398.869C734.164 398.869 734.676 398.901 735.512 398.964C735.681 398.984 735.838 398.996 735.984 398.996C737.491 398.996 739.937 398.746 743.326 398.244C744.435 398.078 745.531 397.992 746.62 397.992C748.608 397.992 749.6 398.683 749.6 400.064C749.6 400.963 749.223 401.412 748.47 401.412C748.114 401.412 747.529 401.328 746.713 401.162C746.293 401.057 745.823 401.004 745.3 401.004C744.254 401.004 742.08 401.34 738.775 402.008C738.419 403.786 737.75 405.815 736.766 408.095C735.656 410.584 734.528 412.487 733.377 413.805C734.005 414.912 734.537 415.707 734.979 416.188C735.878 417.192 737.061 417.695 738.525 417.695C739.235 417.695 739.967 417.602 740.719 417.413C741.556 417.224 742.205 417.131 742.665 417.131C743.438 417.131 743.826 417.517 743.826 418.292C743.826 418.983 743.343 419.568 742.381 420.049C740.957 420.76 739.401 421.116 737.705 421.116C734.944 421.116 732.654 419.653 730.834 416.724C728.051 419.359 725.363 420.677 722.771 420.677C719.819 420.677 717.477 419.464 715.741 417.038C714.549 415.386 713.954 413.377 713.954 411.014C713.954 408.064 714.833 405.336 716.589 402.826C718.411 400.274 721.682 397.983 726.412 395.955C726.243 394.596 726.16 393.414 726.16 392.409C726.16 390.13 726.485 388.132 727.133 386.417C727.739 384.764 728.786 383.375 730.27 382.244C731.631 381.22 733.095 380.707 734.662 380.707C735.959 380.707 737.037 381.167 737.894 382.087C738.814 383.049 739.274 384.2 739.274 385.539C739.274 387.358 738.636 389.23 737.36 391.154C736.397 392.555 734.693 394.02 732.247 395.546C731.957 395.709 731.152 396.19 729.835 396.985ZM726.635 398.585C724.753 399.463 723.163 400.488 721.864 401.66C718.979 404.253 717.536 407.057 717.536 410.067C717.536 411.908 718.026 413.477 719.009 414.774C720.056 416.175 721.561 416.875 723.528 416.875C725.556 416.875 727.618 415.808 729.71 413.676C728.935 411.794 728.256 409.263 727.671 406.084C727.273 403.114 726.927 400.614 726.635 398.585ZM729.583 394.569C731.256 393.627 732.584 392.676 733.566 391.714C735.177 390.103 735.982 388.545 735.982 387.04C735.982 386.266 735.774 385.607 735.355 385.063C734.958 384.541 734.454 384.278 733.848 384.278C732.572 384.278 731.463 385.022 730.522 386.506C729.789 387.678 729.424 389.581 729.424 392.216C729.426 392.614 729.479 393.399 729.583 394.569Z" fill="white"/>
</svg>
